<svg width="479" height="328" viewBox="0 0 479 328" fill="none" xmlns="http://www.w3.org/2000/svg">
<circle cx="315.5" cy="163.5" r="161.5" fill="white"/>
<rect x="183.555" y="74.0555" width="60.75" height="60.75" rx="13" transform="rotate(89.7113 183.555 74.0555)" fill="white"/>
<rect x="184.167" y="195.554" width="60.75" height="60.75" rx="13" transform="rotate(89.7113 184.167 195.554)" fill="white"/>
<rect x="184.167" y="195.554" width="60.75" height="60.75" rx="13" transform="rotate(89.7113 184.167 195.554)" fill="white"/>
<rect x="123.112" y="135.111" width="60.75" height="60.75" rx="13" transform="rotate(89.7113 123.112 135.111)" fill="#C9C9C9"/>
<circle cx="93.1961" cy="226.388" r="30.375" transform="rotate(89.7113 93.1961 226.388)" fill="#33A3AA" fill-opacity="0.87"/>
<circle cx="154.252" cy="286.831" r="30.375" transform="rotate(89.7113 154.252 286.831)" fill="#44FFDD"/>
<circle cx="153.639" cy="165.332" r="30.375" transform="rotate(89.7113 153.639 165.332)" fill="#B689FF"/>
<circle cx="153.027" cy="43.834" r="30.375" transform="rotate(89.7113 153.027 43.834)" fill="#44FFDD"/>
<circle cx="32.1408" cy="165.945" r="30.375" transform="rotate(89.7113 32.1408 165.945)" fill="#44FFDD"/>
<circle cx="92.5839" cy="104.889" r="30.375" transform="rotate(89.7113 92.5839 104.889)" fill="#FF7D7D"/>
<circle cx="214.083" cy="104.277" r="30.375" transform="rotate(89.7113 214.083 104.277)" fill="#33A3AA" fill-opacity="0.87"/>
<circle cx="214.695" cy="225.776" r="30.375" transform="rotate(89.7113 214.695 225.776)" fill="#FF7D7D"/>
</svg>
